STARTFONT 2.3
FONT -FontForge-Zen Tokyo Zoo-Book-R-Normal--10-100-72-72-P-47-ISO10646-1
SIZE 10 72 72  4
FONTBOUNDINGBOX 13 14 -1 -3
COMMENT "Generated by fontforge, http://fontforge.sourceforge.net"
COMMENT "Copyright 2021 The Zen Tokyo Zoo Project Authors (https://github.com/googlefonts/zen-tokyo-zoo)"
STARTPROPERTIES 40
FOUNDRY "FontForge"
FAMILY_NAME "Zen Tokyo Zoo"
WEIGHT_NAME "Book"
SLANT "R"
SETWIDTH_NAME "Normal"
ADD_STYLE_NAME ""
PIXEL_SIZE 10
POINT_SIZE 100
RESOLUTION_X 72
RESOLUTION_Y 72
SPACING "P"
AVERAGE_WIDTH 47
CHARSET_REGISTRY "ISO10646"
CHARSET_ENCODING "1"
FONTNAME_REGISTRY ""
CHARSET_COLLECTIONS "ISO10646-1"
BITS_PER_PIXEL 4
FONT_NAME "ZenTokyoZoo-Regular"
FACE_NAME "Zen Tokyo Zoo Regular"
COPYRIGHT "Copyright 2021 The Zen Tokyo Zoo Project Authors (https://github.com/googlefonts/zen-tokyo-zoo)"
FONT_VERSION "1.002; ttfautohint (v1.8.3)"
FONT_ASCENT 8
FONT_DESCENT 2
UNDERLINE_POSITION -1
UNDERLINE_THICKNESS 1
X_HEIGHT 3
CAP_HEIGHT 7
RAW_ASCENT 800
RAW_DESCENT 200
NORM_SPACE 3
RELATIVE_WEIGHT 40
RELATIVE_SETWIDTH 50
SUPERSCRIPT_X 0
SUPERSCRIPT_Y 3
SUPERSCRIPT_SIZE 6
SUBSCRIPT_X 0
SUBSCRIPT_Y 0
SUBSCRIPT_SIZE 6
AVG_LOWERCASE_WIDTH 41
AVG_UPPERCASE_WIDTH 76
ENDPROPERTIES
CHARS 338
STARTCHAR CR
ENCODING 13
SWIDTH 600 0
DWIDTH 6 0
BBX 1 1 0 0
BITMAP
00
ENDCHAR
STARTCHAR space
ENCODING 32
SWIDTH 280 0
DWIDTH 3 0
BBX 1 1 0 0
BITMAP
00
ENDCHAR
STARTCHAR exclam
ENCODING 33
SWIDTH 196 0
DWIDTH 2 0
BBX 2 4 0 0
BITMAP
44
44
44
44
ENDCHAR
STARTCHAR quotedbl
ENCODING 34
SWIDTH 302 0
DWIDTH 3 0
BBX 3 2 0 2
BITMAP
6660
2220
ENDCHAR
STARTCHAR numbersign
ENCODING 35
SWIDTH 513 0
DWIDTH 5 0
BBX 5 4 0 0
BITMAP
156730
146630
245610
065400
ENDCHAR
STARTCHAR dollar
ENCODING 36
SWIDTH 379 0
DWIDTH 4 0
BBX 4 5 0 0
BITMAP
1630
5722
3762
2555
2641
ENDCHAR
STARTCHAR percent
ENCODING 37
SWIDTH 493 0
DWIDTH 5 0
BBX 5 4 0 0
BITMAP
693710
367300
047520
274950
ENDCHAR
STARTCHAR ampersand
ENCODING 38
SWIDTH 487 0
DWIDTH 5 0
BBX 5 4 0 0
BITMAP
06A400
056400
457540
4A6710
ENDCHAR
STARTCHAR quotesingle
ENCODING 39
SWIDTH 146 0
DWIDTH 1 0
BBX 2 2 0 2
BITMAP
63
21
ENDCHAR
STARTCHAR parenleft
ENCODING 40
SWIDTH 210 0
DWIDTH 2 0
BBX 2 5 0 0
BITMAP
13
55
54
55
45
ENDCHAR
STARTCHAR parenright
ENCODING 41
SWIDTH 210 0
DWIDTH 2 0
BBX 2 5 0 0
BITMAP
32
45
36
45
54
ENDCHAR
STARTCHAR asterisk
ENCODING 42
SWIDTH 358 0
DWIDTH 4 0
BBX 3 3 0 1
BITMAP
1440
2350
0110
ENDCHAR
STARTCHAR plus
ENCODING 43
SWIDTH 394 0
DWIDTH 4 0
BBX 4 3 0 1
BITMAP
0440
2552
0540
ENDCHAR
STARTCHAR comma
ENCODING 44
SWIDTH 216 0
DWIDTH 2 0
BBX 2 1 0 0
BITMAP
45
ENDCHAR
STARTCHAR hyphen
ENCODING 45
SWIDTH 326 0
DWIDTH 3 0
BBX 3 2 0 1
BITMAP
2430
2430
ENDCHAR
STARTCHAR period
ENCODING 46
SWIDTH 176 0
DWIDTH 2 0
BBX 2 1 0 0
BITMAP
44
ENDCHAR
STARTCHAR slash
ENCODING 47
SWIDTH 298 0
DWIDTH 3 0
BBX 3 4 0 0
BITMAP
0550
0730
3700
5500
ENDCHAR
STARTCHAR zero
ENCODING 48
SWIDTH 306 0
DWIDTH 3 0
BBX 3 4 0 0
BITMAP
5B50
5760
5760
5B50
ENDCHAR
STARTCHAR one
ENCODING 49
SWIDTH 306 0
DWIDTH 3 0
BBX 3 4 0 0
BITMAP
5740
0540
0540
0540
ENDCHAR
STARTCHAR two
ENCODING 50
SWIDTH 299 0
DWIDTH 3 0
BBX 3 4 0 0
BITMAP
4B50
0650
4610
7A60
ENDCHAR
STARTCHAR three
ENCODING 51
SWIDTH 324 0
DWIDTH 3 0
BBX 3 4 0 0
BITMAP
3860
0250
1350
4960
ENDCHAR
STARTCHAR four
ENCODING 52
SWIDTH 339 0
DWIDTH 3 0
BBX 4 4 0 0
BITMAP
0550
3700
4381
3381
ENDCHAR
STARTCHAR five
ENCODING 53
SWIDTH 363 0
DWIDTH 4 0
BBX 4 4 0 0
BITMAP
2980
4540
1271
2980
ENDCHAR
STARTCHAR six
ENCODING 54
SWIDTH 306 0
DWIDTH 3 0
BBX 3 4 0 0
BITMAP
5A50
5640
5650
5A50
ENDCHAR
STARTCHAR seven
ENCODING 55
SWIDTH 298 0
DWIDTH 3 0
BBX 3 4 0 0
BITMAP
6960
0330
0630
1800
ENDCHAR
STARTCHAR eight
ENCODING 56
SWIDTH 306 0
DWIDTH 3 0
BBX 3 4 0 0
BITMAP
4B50
5650
4660
5B50
ENDCHAR
STARTCHAR nine
ENCODING 57
SWIDTH 306 0
DWIDTH 3 0
BBX 3 4 0 0
BITMAP
4B50
5560
3660
4B50
ENDCHAR
STARTCHAR colon
ENCODING 58
SWIDTH 176 0
DWIDTH 2 0
BBX 2 2 0 0
BITMAP
44
44
ENDCHAR
STARTCHAR semicolon
ENCODING 59
SWIDTH 217 0
DWIDTH 2 0
BBX 2 3 0 -1
BITMAP
25
22
44
ENDCHAR
STARTCHAR less
ENCODING 60
SWIDTH 450 0
DWIDTH 5 0
BBX 5 4 0 0
BITMAP
003610
145400
267400
003710
ENDCHAR
STARTCHAR equal
ENCODING 61
SWIDTH 344 0
DWIDTH 3 0
BBX 3 3 0 0
BITMAP
2440
2440
2440
ENDCHAR
STARTCHAR greater
ENCODING 62
SWIDTH 450 0
DWIDTH 5 0
BBX 4 5 0 0
BITMAP
1000
5510
1575
2552
4500
ENDCHAR
STARTCHAR question
ENCODING 63
SWIDTH 346 0
DWIDTH 3 0
BBX 3 4 0 0
BITMAP
3870
1570
0640
0420
ENDCHAR
STARTCHAR at
ENCODING 64
SWIDTH 490 0
DWIDTH 5 0
BBX 5 4 0 0
BITMAP
177610
655540
654620
177400
ENDCHAR
STARTCHAR A
ENCODING 65
SWIDTH 798 0
DWIDTH 8 0
BBX 8 8 0 0
BITMAP
00186100
00566500
00685600
02755720
05734650
07744770
36644663
58200275
ENDCHAR
STARTCHAR B
ENCODING 66
SWIDTH 784 0
DWIDTH 8 0
BBX 8 8 0 0
BITMAP
47699930
47444481
47200572
47444561
47444645
47200374
47444573
47799960
ENDCHAR
STARTCHAR C
ENCODING 67
SWIDTH 776 0
DWIDTH 8 0
BBX 8 8 0 0
BITMAP
00699960
08554562
46500020
58000000
58000000
46500010
08554562
00699960
ENDCHAR
STARTCHAR D
ENCODING 68
SWIDTH 806 0
DWIDTH 8 0
BBX 8 8 0 0
BITMAP
47699710
47445580
47200565
47200085
47200095
47200565
47445590
47699710
ENDCHAR
STARTCHAR E
ENCODING 69
SWIDTH 677 0
DWIDTH 7 0
BBX 7 8 0 0
BITMAP
47699940
47444420
47200000
47444400
47699800
47200000
47444420
47699940
ENDCHAR
STARTCHAR F
ENCODING 70
SWIDTH 677 0
DWIDTH 7 0
BBX 7 8 0 0
BITMAP
47688840
47444420
47200000
47444400
47688800
47200000
47200000
47200000
ENDCHAR
STARTCHAR G
ENCODING 71
SWIDTH 872 0
DWIDTH 9 0
BBX 9 8 0 0
BITMAP
0069996000
0855456700
4650003100
5800244420
5800244420
4650246530
0855446810
00699A6100
ENDCHAR
STARTCHAR H
ENCODING 72
SWIDTH 781 0
DWIDTH 8 0
BBX 8 8 0 0
BITMAP
47200454
47200454
47200454
47444654
47688754
47200454
47200454
47200454
ENDCHAR
STARTCHAR I
ENCODING 73
SWIDTH 262 0
DWIDTH 3 0
BBX 3 8 0 0
BITMAP
4720
4720
4720
4720
4720
4720
4720
4720
ENDCHAR
STARTCHAR J
ENCODING 74
SWIDTH 674 0
DWIDTH 7 0
BBX 7 8 0 0
BITMAP
00004540
00004540
00004540
00004540
12004540
68105730
46445800
05998200
ENDCHAR
STARTCHAR K
ENCODING 75
SWIDTH 739 0
DWIDTH 7 0
BBX 8 8 0 0
BITMAP
47203770
47217720
47247400
47474000
47775000
47267400
47217720
47203771
ENDCHAR
STARTCHAR L
ENCODING 76
SWIDTH 604 0
DWIDTH 6 0
BBX 6 8 0 0
BITMAP
472000
472000
472000
472000
472000
472000
474444
476998
ENDCHAR
STARTCHAR M
ENCODING 77
SWIDTH 909 0
DWIDTH 9 0
BBX 9 8 0 0
BITMAP
4730002940
4752024940
4766065940
4767665940
4727751940
4722710940
4720100940
4720000940
ENDCHAR
STARTCHAR N
ENCODING 78
SWIDTH 796 0
DWIDTH 8 0
BBX 8 8 0 0
BITMAP
47300274
47530274
47571274
47676274
47267674
47217674
47203574
47200474
ENDCHAR
STARTCHAR O
ENCODING 79
SWIDTH 894 0
DWIDTH 9 0
BBX 9 8 0 0
BITMAP
0069996000
0855455800
4650005640
5800001850
5800001850
4650006640
0855455800
0069996000
ENDCHAR
STARTCHAR P
ENCODING 80
SWIDTH 743 0
DWIDTH 7 0
BBX 8 8 0 0
BITMAP
47699930
47444481
47200572
47444560
47444510
47200000
47200000
47200000
ENDCHAR
STARTCHAR Q
ENCODING 81
SWIDTH 911 0
DWIDTH 9 0
BBX 9 8 0 0
BITMAP
0069996000
0855455800
4650006640
5800001850
5800004850
4650057630
0855447750
0069993620
ENDCHAR
STARTCHAR R
ENCODING 82
SWIDTH 745 0
DWIDTH 7 0
BBX 8 8 0 0
BITMAP
47699930
47444481
47200572
47444560
47445610
47207810
47204650
47200770
ENDCHAR
STARTCHAR S
ENCODING 83
SWIDTH 660 0
DWIDTH 7 0
BBX 7 8 0 0
BITMAP
07998200
57555810
48202100
37874000
01478710
02005540
56555820
06999300
ENDCHAR
STARTCHAR T
ENCODING 84
SWIDTH 641 0
DWIDTH 6 0
BBX 7 8 0 0
BITMAP
89999930
44554410
00490000
00490000
00490000
00490000
00490000
00490000
ENDCHAR
STARTCHAR U
ENCODING 85
SWIDTH 702 0
DWIDTH 7 0
BBX 7 8 0 0
BITMAP
47201840
47201840
47201840
47201840
47201840
56403650
28444820
03999400
ENDCHAR
STARTCHAR V
ENCODING 86
SWIDTH 758 0
DWIDTH 8 0
BBX 8 8 0 0
BITMAP
58100573
46500770
08603750
05825730
04657700
00866500
00585300
00466000
ENDCHAR
STARTCHAR W
ENCODING 87
SWIDTH 972 0
DWIDTH 10 0
BBX 10 8 0 0
BITMAP
5800860455
5642750572
3754572680
0865845850
0585665540
0557568520
0275457600
0086045500
ENDCHAR
STARTCHAR X
ENCODING 88
SWIDTH 712 0
DWIDTH 7 0
BBX 7 8 0 0
BITMAP
46505650
06737700
03765400
00576000
00477000
04666500
17717810
56403760
ENDCHAR
STARTCHAR Y
ENCODING 89
SWIDTH 769 0
DWIDTH 8 0
BBX 8 8 0 0
BITMAP
57400673
17714760
03766710
00576400
00153000
00094000
00094000
00094000
ENDCHAR
STARTCHAR Z
ENCODING 90
SWIDTH 708 0
DWIDTH 7 0
BBX 7 8 0 0
BITMAP
29996760
14447720
00056500
00276000
00673000
04650000
17744410
57799920
ENDCHAR
STARTCHAR bracketleft
ENCODING 91
SWIDTH 320 0
DWIDTH 3 0
BBX 3 5 0 -1
BITMAP
3430
4400
4400
4530
3430
ENDCHAR
STARTCHAR backslash
ENCODING 92
SWIDTH 298 0
DWIDTH 3 0
BBX 3 4 0 0
BITMAP
5500
3700
0730
0550
ENDCHAR
STARTCHAR bracketright
ENCODING 93
SWIDTH 320 0
DWIDTH 3 0
BBX 3 5 0 -1
BITMAP
2430
0450
0450
2650
2430
ENDCHAR
STARTCHAR asciicircum
ENCODING 94
SWIDTH 309 0
DWIDTH 3 0
BBX 3 2 0 2
BITMAP
0300
3640
ENDCHAR
STARTCHAR underscore
ENCODING 95
SWIDTH 472 0
DWIDTH 5 0
BBX 5 2 0 0
BITMAP
244410
244410
ENDCHAR
STARTCHAR grave
ENCODING 96
SWIDTH 195 0
DWIDTH 2 0
BBX 2 1 0 5
BITMAP
32
ENDCHAR
STARTCHAR a
ENCODING 97
SWIDTH 414 0
DWIDTH 4 0
BBX 4 4 0 0
BITMAP
0580
1872
4665
6767
ENDCHAR
STARTCHAR b
ENCODING 98
SWIDTH 423 0
DWIDTH 4 0
BBX 4 4 0 0
BITMAP
4AA5
4758
4756
4A97
ENDCHAR
STARTCHAR c
ENCODING 99
SWIDTH 446 0
DWIDTH 4 0
BBX 4 4 0 0
BITMAP
1887
5500
5500
1887
ENDCHAR
STARTCHAR d
ENCODING 100
SWIDTH 450 0
DWIDTH 5 0
BBX 5 4 0 0
BITMAP
4AA500
440820
440820
4A9500
ENDCHAR
STARTCHAR e
ENCODING 101
SWIDTH 363 0
DWIDTH 4 0
BBX 4 4 0 0
BITMAP
4A94
4741
4741
4A94
ENDCHAR
STARTCHAR f
ENCODING 102
SWIDTH 365 0
DWIDTH 4 0
BBX 4 4 0 0
BITMAP
4A94
4741
4741
4400
ENDCHAR
STARTCHAR g
ENCODING 103
SWIDTH 483 0
DWIDTH 5 0
BBX 5 4 0 0
BITMAP
188710
551420
551640
189710
ENDCHAR
STARTCHAR h
ENCODING 104
SWIDTH 428 0
DWIDTH 4 0
BBX 4 4 0 0
BITMAP
4418
4758
4758
4418
ENDCHAR
STARTCHAR i
ENCODING 105
SWIDTH 176 0
DWIDTH 2 0
BBX 2 4 0 0
BITMAP
44
44
44
44
ENDCHAR
STARTCHAR j
ENCODING 106
SWIDTH 390 0
DWIDTH 4 0
BBX 4 4 0 0
BITMAP
0044
0044
1254
3982
ENDCHAR
STARTCHAR k
ENCODING 107
SWIDTH 381 0
DWIDTH 4 0
BBX 4 4 0 0
BITMAP
4574
4960
4960
4574
ENDCHAR
STARTCHAR l
ENCODING 108
SWIDTH 330 0
DWIDTH 3 0
BBX 4 4 0 0
BITMAP
4400
4400
4400
4A91
ENDCHAR
STARTCHAR m
ENCODING 109
SWIDTH 501 0
DWIDTH 5 0
BBX 5 4 0 0
BITMAP
490940
498940
456540
440440
ENDCHAR
STARTCHAR n
ENCODING 110
SWIDTH 444 0
DWIDTH 4 0
BBX 5 4 0 0
BITMAP
490810
495810
467910
444910
ENDCHAR
STARTCHAR o
ENCODING 111
SWIDTH 494 0
DWIDTH 5 0
BBX 5 4 0 0
BITMAP
189810
550450
550550
189810
ENDCHAR
STARTCHAR p
ENCODING 112
SWIDTH 412 0
DWIDTH 4 0
BBX 4 4 0 0
BITMAP
4AA5
4755
4753
4400
ENDCHAR
STARTCHAR q
ENCODING 113
SWIDTH 494 0
DWIDTH 5 0
BBX 5 4 0 0
BITMAP
189810
550550
551750
189830
ENDCHAR
STARTCHAR r
ENCODING 114
SWIDTH 412 0
DWIDTH 4 0
BBX 4 4 0 0
BITMAP
4AA5
4755
4774
4455
ENDCHAR
STARTCHAR s
ENCODING 115
SWIDTH 379 0
DWIDTH 4 0
BBX 4 4 0 0
BITMAP
3872
5551
1545
3882
ENDCHAR
STARTCHAR t
ENCODING 116
SWIDTH 349 0
DWIDTH 3 0
BBX 4 4 0 0
BITMAP
8BA3
0630
0630
0630
ENDCHAR
STARTCHAR u
ENCODING 117
SWIDTH 400 0
DWIDTH 4 0
BBX 4 4 0 0
BITMAP
4444
4444
4554
2882
ENDCHAR
STARTCHAR v
ENCODING 118
SWIDTH 394 0
DWIDTH 4 0
BBX 4 4 0 0
BITMAP
6445
5554
1881
0680
ENDCHAR
STARTCHAR w
ENCODING 119
SWIDTH 521 0
DWIDTH 5 0
BBX 5 4 0 0
BITMAP
638380
577950
489750
085930
ENDCHAR
STARTCHAR x
ENCODING 120
SWIDTH 369 0
DWIDTH 4 0
BBX 4 4 0 0
BITMAP
5673
1870
1960
5574
ENDCHAR
STARTCHAR y
ENCODING 121
SWIDTH 422 0
DWIDTH 4 0
BBX 4 4 0 0
BITMAP
5647
1792
0440
0540
ENDCHAR
STARTCHAR z
ENCODING 122
SWIDTH 409 0
DWIDTH 4 0
BBX 4 4 0 0
BITMAP
59B8
0372
1740
7B96
ENDCHAR
STARTCHAR braceleft
ENCODING 123
SWIDTH 443 0
DWIDTH 4 0
BBX 4 5 0 -1
BITMAP
0334
0450
2650
0454
0334
ENDCHAR
STARTCHAR bar
ENCODING 124
SWIDTH 196 0
DWIDTH 2 0
BBX 2 5 0 0
BITMAP
22
44
44
44
44
ENDCHAR
STARTCHAR braceright
ENCODING 125
SWIDTH 506 0
DWIDTH 5 0
BBX 4 5 1 -1
BITMAP
4330
0440
0462
4540
4330
ENDCHAR
STARTCHAR asciitilde
ENCODING 126
SWIDTH 450 0
DWIDTH 5 0
BBX 4 2 0 1
BITMAP
1133
1133
ENDCHAR
STARTCHAR uni00A0
ENCODING 160
SWIDTH 280 0
DWIDTH 3 0
BBX 1 1 0 0
BITMAP
00
ENDCHAR
STARTCHAR exclamdown
ENCODING 161
SWIDTH 196 0
DWIDTH 2 0
BBX 2 4 0 -1
BITMAP
44
44
44
44
ENDCHAR
STARTCHAR cent
ENCODING 162
SWIDTH 305 0
DWIDTH 3 0
BBX 3 5 0 -1
BITMAP
0410
2530
9100
3530
0410
ENDCHAR
STARTCHAR sterling
ENCODING 163
SWIDTH 408 0
DWIDTH 4 0
BBX 4 4 0 0
BITMAP
5A80
5550
2200
9AA8
ENDCHAR
STARTCHAR currency
ENCODING 164
SWIDTH 401 0
DWIDTH 4 0
BBX 4 5 0 0
BITMAP
1001
3663
0660
3653
1111
ENDCHAR
STARTCHAR yen
ENCODING 165
SWIDTH 423 0
DWIDTH 4 0
BBX 4 4 0 0
BITMAP
5646
0792
2543
2653
ENDCHAR
STARTCHAR brokenbar
ENCODING 166
SWIDTH 196 0
DWIDTH 2 0
BBX 2 4 0 0
BITMAP
44
33
33
44
ENDCHAR
STARTCHAR section
ENCODING 167
SWIDTH 322 0
DWIDTH 3 0
BBX 3 4 0 0
BITMAP
4C50
4560
4560
2B80
ENDCHAR
STARTCHAR dieresis
ENCODING 168
SWIDTH 287 0
DWIDTH 3 0
BBX 3 1 0 5
BITMAP
6440
ENDCHAR
STARTCHAR copyright
ENCODING 169
SWIDTH 493 0
DWIDTH 5 0
BBX 5 5 0 0
BITMAP
045400
435340
550050
535340
045400
ENDCHAR
STARTCHAR ordfeminine
ENCODING 170
SWIDTH 331 0
DWIDTH 3 0
BBX 3 2 0 2
BITMAP
1940
4860
ENDCHAR
STARTCHAR guillemotleft
ENCODING 171
SWIDTH 298 0
DWIDTH 3 0
BBX 3 2 0 1
BITMAP
3540
3430
ENDCHAR
STARTCHAR logicalnot
ENCODING 172
SWIDTH 420 0
DWIDTH 4 0
BBX 4 3 0 0
BITMAP
2443
2443
0025
ENDCHAR
STARTCHAR uni00AD
ENCODING 173
SWIDTH 326 0
DWIDTH 3 0
BBX 3 2 0 1
BITMAP
2430
2430
ENDCHAR
STARTCHAR registered
ENCODING 174
SWIDTH 493 0
DWIDTH 5 0
BBX 5 5 0 0
BITMAP
045400
410240
549250
552440
045400
ENDCHAR
STARTCHAR macron
ENCODING 175
SWIDTH 331 0
DWIDTH 3 0
BBX 3 1 0 4
BITMAP
2440
ENDCHAR
STARTCHAR degree
ENCODING 176
SWIDTH 298 0
DWIDTH 3 0
BBX 3 3 0 2
BITMAP
2520
5250
2520
ENDCHAR
STARTCHAR plusminus
ENCODING 177
SWIDTH 418 0
DWIDTH 4 0
BBX 4 4 0 0
BITMAP
0440
2653
0330
5997
ENDCHAR
STARTCHAR uni00B2
ENCODING 178
SWIDTH 233 0
DWIDTH 2 0
BBX 2 2 0 2
BITMAP
27
46
ENDCHAR
STARTCHAR uni00B3
ENCODING 179
SWIDTH 228 0
DWIDTH 2 0
BBX 2 2 0 2
BITMAP
26
26
ENDCHAR
STARTCHAR acute
ENCODING 180
SWIDTH 195 0
DWIDTH 2 0
BBX 2 1 0 5
BITMAP
32
ENDCHAR
STARTCHAR uni00B5
ENCODING 181
SWIDTH 506 0
DWIDTH 5 0
BBX 5 5 0 -1
BITMAP
444500
444500
444500
479550
440000
ENDCHAR
STARTCHAR paragraph
ENCODING 182
SWIDTH 435 0
DWIDTH 4 0
BBX 4 4 0 0
BITMAP
4A98
5453
3495
0095
ENDCHAR
STARTCHAR periodcentered
ENCODING 183
SWIDTH 176 0
DWIDTH 2 0
BBX 2 1 0 1
BITMAP
44
ENDCHAR
STARTCHAR cedilla
ENCODING 184
SWIDTH 261 0
DWIDTH 3 0
BBX 2 2 0 -2
BITMAP
27
25
ENDCHAR
STARTCHAR uni00B9
ENCODING 185
SWIDTH 218 0
DWIDTH 2 0
BBX 2 2 0 2
BITMAP
36
06
ENDCHAR
STARTCHAR ordmasculine
ENCODING 186
SWIDTH 335 0
DWIDTH 3 0
BBX 3 2 0 2
BITMAP
4860
3860
ENDCHAR
STARTCHAR guillemotright
ENCODING 187
SWIDTH 298 0
DWIDTH 3 0
BBX 3 2 0 1
BITMAP
4530
3430
ENDCHAR
STARTCHAR onequarter
ENCODING 188
SWIDTH 429 0
DWIDTH 4 0
BBX 4 4 0 0
BITMAP
4524
1561
0355
0717
ENDCHAR
STARTCHAR onehalf
ENCODING 189
SWIDTH 437 0
DWIDTH 4 0
BBX 4 4 0 0
BITMAP
4543
1464
0636
1316
ENDCHAR
STARTCHAR threequarters
ENCODING 190
SWIDTH 409 0
DWIDTH 4 0
BBX 4 5 0 -1
BITMAP
2322
3360
0463
1636
0001
ENDCHAR
STARTCHAR questiondown
ENCODING 191
SWIDTH 346 0
DWIDTH 3 0
BBX 3 5 0 -1
BITMAP
0320
0530
3710
5640
1540
ENDCHAR
STARTCHAR Agrave
ENCODING 192
SWIDTH 798 0
DWIDTH 8 0
BBX 8 10 0 0
BITMAP
00560000
00074000
00186100
00566500
00685600
02755720
05734650
07744770
36644663
58200275
ENDCHAR
STARTCHAR Aacute
ENCODING 193
SWIDTH 798 0
DWIDTH 8 0
BBX 8 10 0 0
BITMAP
00005500
00027100
00186100
00566500
00685600
02755720
05734650
07744770
36644663
58200275
ENDCHAR
STARTCHAR Acircumflex
ENCODING 194
SWIDTH 798 0
DWIDTH 8 0
BBX 8 10 0 0
BITMAP
00275000
01746600
00186100
00566500
00685600
02755720
05734650
07744770
36644663
58200275
ENDCHAR
STARTCHAR Atilde
ENCODING 195
SWIDTH 798 0
DWIDTH 8 0
BBX 8 10 0 0
BITMAP
00440300
00305400
00186100
00566500
00685600
02755720
05734650
07744770
36644663
58200275
ENDCHAR
STARTCHAR Adieresis
ENCODING 196
SWIDTH 798 0
DWIDTH 8 0
BBX 8 11 0 0
BITMAP
01522510
04155150
01532510
00186100
00566500
00685600
02755720
05734650
07744770
36644663
58200275
ENDCHAR
STARTCHAR Aring
ENCODING 197
SWIDTH 798 0
DWIDTH 8 0
BBX 8 11 0 0
BITMAP
00055000
00055000
00044000
00186100
00566500
00685600
02755720
05734650
07744770
36644663
58200275
ENDCHAR
STARTCHAR AE
ENCODING 198
SWIDTH 1078 0
DWIDTH 11 0
BBX 11 8 0 0
BITMAP
000259699940
000558444420
001666300000
005675644400
017737699800
056638500000
176338544420
574437779940
ENDCHAR
STARTCHAR Ccedilla
ENCODING 199
SWIDTH 776 0
DWIDTH 8 0
BBX 8 11 0 -3
BITMAP
00699960
08554562
46500020
58000000
58000000
46500010
08554562
00699960
00011000
00065000
00045000
ENDCHAR
STARTCHAR Egrave
ENCODING 200
SWIDTH 677 0
DWIDTH 7 0
BBX 7 10 0 0
BITMAP
00172000
00046000
47699940
47444420
47200000
47444400
47699800
47200000
47444420
47699940
ENDCHAR
STARTCHAR Eacute
ENCODING 201
SWIDTH 677 0
DWIDTH 7 0
BBX 7 10 0 0
BITMAP
00056000
00172000
47699940
47444420
47200000
47444400
47699800
47200000
47444420
47699940
ENDCHAR
STARTCHAR Ecircumflex
ENCODING 202
SWIDTH 677 0
DWIDTH 7 0
BBX 7 10 0 0
BITMAP
00374000
01736500
47699940
47444420
47200000
47444400
47699800
47200000
47444420
47699940
ENDCHAR
STARTCHAR Edieresis
ENCODING 203
SWIDTH 677 0
DWIDTH 7 0
BBX 7 11 0 0
BITMAP
01523500
05055330
01523500
47699940
47444420
47200000
47444400
47699800
47200000
47444420
47699940
ENDCHAR
STARTCHAR Igrave
ENCODING 204
SWIDTH 262 0
DWIDTH 3 0
BBX 4 10 -1 0
BITMAP
3700
0650
0472
0472
0472
0472
0472
0472
0472
0472
ENDCHAR
STARTCHAR Iacute
ENCODING 205
SWIDTH 262 0
DWIDTH 3 0
BBX 3 10 0 0
BITMAP
0460
1730
4720
4720
4720
4720
4720
4720
4720
4720
ENDCHAR
STARTCHAR Icircumflex
ENCODING 206
SWIDTH 262 0
DWIDTH 3 0
BBX 5 10 -1 0
BITMAP
075200
563710
047200
047200
047200
047200
047200
047200
047200
047200
ENDCHAR
STARTCHAR Idieresis
ENCODING 207
SWIDTH 262 0
DWIDTH 3 0
BBX 5 11 -1 0
BITMAP
441530
554150
441530
047200
047200
047200
047200
047200
047200
047200
047200
ENDCHAR
STARTCHAR Eth
ENCODING 208
SWIDTH 856 0
DWIDTH 9 0
BBX 9 8 0 0
BITMAP
0959993000
0954448400
0740016900
4444005630
8999105630
0740016900
0954558400
0959993000
ENDCHAR
STARTCHAR Ntilde
ENCODING 209
SWIDTH 796 0
DWIDTH 8 0
BBX 8 10 0 0
BITMAP
00440300
00305400
47300274
47530274
47571274
47676274
47267674
47217674
47203574
47200474
ENDCHAR
STARTCHAR Ograve
ENCODING 210
SWIDTH 894 0
DWIDTH 9 0
BBX 9 10 0 0
BITMAP
0017200000
0004600000
0069996000
0855455800
4650005640
5800001850
5800001850
4650006640
0855455800
0069996000
ENDCHAR
STARTCHAR Oacute
ENCODING 211
SWIDTH 894 0
DWIDTH 9 0
BBX 9 10 0 0
BITMAP
0000470000
0000730000
0069996000
0855455800
4650005640
5800001850
5800001850
4650006640
0855455800
0069996000
ENDCHAR
STARTCHAR Ocircumflex
ENCODING 212
SWIDTH 894 0
DWIDTH 9 0
BBX 9 10 0 0
BITMAP
0006630000
0047372000
0069996000
0855455800
4650005640
5800001850
5800001850
4650006640
0855455800
0069996000
ENDCHAR
STARTCHAR Otilde
ENCODING 213
SWIDTH 894 0
DWIDTH 9 0
BBX 9 10 0 0
BITMAP
0015203000
0030351000
0069996000
0855455800
4650005640
5800001850
5800001850
4650006640
0855455800
0069996000
ENDCHAR
STARTCHAR Odieresis
ENCODING 214
SWIDTH 894 0
DWIDTH 9 0
BBX 9 11 0 0
BITMAP
0035053000
0054335000
0045054000
0069996000
0855455800
4650005640
5800001850
5800001850
4650006640
0855455800
0069996000
ENDCHAR
STARTCHAR multiply
ENCODING 215
SWIDTH 370 0
DWIDTH 4 0
BBX 4 4 0 0
BITMAP
0210
3571
3751
0230
ENDCHAR
STARTCHAR Oslash
ENCODING 216
SWIDTH 894 0
DWIDTH 9 0
BBX 9 8 0 0
BITMAP
0069976600
0855448600
4650187440
5802773840
4836721850
4468106640
0685455800
1667996000
ENDCHAR
STARTCHAR Ugrave
ENCODING 217
SWIDTH 702 0
DWIDTH 7 0
BBX 7 10 0 0
BITMAP
01720000
00560000
47201840
47201840
47201840
47201840
47201840
56403650
28444820
03999400
ENDCHAR
STARTCHAR Uacute
ENCODING 218
SWIDTH 702 0
DWIDTH 7 0
BBX 7 10 0 0
BITMAP
00027100
00065000
47201840
47201840
47201840
47201840
47201840
56403650
28444820
03999400
ENDCHAR
STARTCHAR Ucircumflex
ENCODING 219
SWIDTH 702 0
DWIDTH 7 0
BBX 7 10 0 0
BITMAP
00663000
04727200
47201840
47201840
47201840
47201840
47201840
56403650
28444820
03999400
ENDCHAR
STARTCHAR Udieresis
ENCODING 220
SWIDTH 702 0
DWIDTH 7 0
BBX 7 11 0 0
BITMAP
03505400
05434500
03505400
47201840
47201840
47201840
47201840
47201840
56403650
28444820
03999400
ENDCHAR
STARTCHAR Yacute
ENCODING 221
SWIDTH 769 0
DWIDTH 8 0
BBX 8 10 0 0
BITMAP
00007300
00056000
57400673
17714760
03766710
00576400
00153000
00094000
00094000
00094000
ENDCHAR
STARTCHAR Thorn
ENCODING 222
SWIDTH 743 0
DWIDTH 7 0
BBX 8 8 0 0
BITMAP
47200000
47444410
47444460
47444472
47444472
47444460
47444410
47200000
ENDCHAR
STARTCHAR germandbls
ENCODING 223
SWIDTH 424 0
DWIDTH 4 0
BBX 4 4 0 0
BITMAP
4AA4
4466
4456
4697
ENDCHAR
STARTCHAR agrave
ENCODING 224
SWIDTH 414 0
DWIDTH 4 0
BBX 4 6 0 0
BITMAP
0410
0000
0580
1872
4665
6767
ENDCHAR
STARTCHAR aacute
ENCODING 225
SWIDTH 414 0
DWIDTH 4 0
BBX 4 6 0 0
BITMAP
0050
0000
0580
1872
4665
6767
ENDCHAR
STARTCHAR acircumflex
ENCODING 226
SWIDTH 414 0
DWIDTH 4 0
BBX 4 6 0 0
BITMAP
0540
0000
0580
1872
4665
6767
ENDCHAR
STARTCHAR atilde
ENCODING 227
SWIDTH 414 0
DWIDTH 4 0
BBX 4 5 0 0
BITMAP
0140
0580
1872
4665
6767
ENDCHAR
STARTCHAR adieresis
ENCODING 228
SWIDTH 414 0
DWIDTH 4 0
BBX 4 6 0 0
BITMAP
0770
0000
0580
1872
4665
6767
ENDCHAR
STARTCHAR aring
ENCODING 229
SWIDTH 414 0
DWIDTH 4 0
BBX 4 6 0 0
BITMAP
0230
0230
0580
1872
4665
6767
ENDCHAR
STARTCHAR ae
ENCODING 230
SWIDTH 593 0
DWIDTH 6 0
BBX 6 4 0 0
BITMAP
016A97
058742
286642
587897
ENDCHAR
STARTCHAR ccedilla
ENCODING 231
SWIDTH 446 0
DWIDTH 4 0
BBX 4 6 0 -2
BITMAP
1887
5500
5500
1897
0170
0250
ENDCHAR
STARTCHAR egrave
ENCODING 232
SWIDTH 363 0
DWIDTH 4 0
BBX 4 6 0 0
BITMAP
0410
0000
4A94
4741
4741
4A94
ENDCHAR
STARTCHAR eacute
ENCODING 233
SWIDTH 363 0
DWIDTH 4 0
BBX 4 6 0 0
BITMAP
0050
0000
4A94
4741
4741
4A94
ENDCHAR
STARTCHAR ecircumflex
ENCODING 234
SWIDTH 363 0
DWIDTH 4 0
BBX 4 6 0 0
BITMAP
0540
0000
4A94
4741
4741
4A94
ENDCHAR
STARTCHAR edieresis
ENCODING 235
SWIDTH 363 0
DWIDTH 4 0
BBX 4 6 0 0
BITMAP
0770
0000
4A94
4741
4741
4A94
ENDCHAR
STARTCHAR igrave
ENCODING 236
SWIDTH 176 0
DWIDTH 2 0
BBX 2 6 0 0
BITMAP
50
00
44
44
44
44
ENDCHAR
STARTCHAR iacute
ENCODING 237
SWIDTH 176 0
DWIDTH 2 0
BBX 2 6 0 0
BITMAP
05
00
44
44
44
44
ENDCHAR
STARTCHAR icircumflex
ENCODING 238
SWIDTH 176 0
DWIDTH 2 0
BBX 2 6 0 0
BITMAP
53
00
44
44
44
44
ENDCHAR
STARTCHAR idieresis
ENCODING 239
SWIDTH 176 0
DWIDTH 2 0
BBX 2 6 0 0
BITMAP
77
00
44
44
44
44
ENDCHAR
STARTCHAR eth
ENCODING 240
SWIDTH 455 0
DWIDTH 5 0
BBX 5 4 0 0
BITMAP
4AA500
220720
550720
4A9500
ENDCHAR
STARTCHAR ntilde
ENCODING 241
SWIDTH 444 0
DWIDTH 4 0
BBX 5 5 0 0
BITMAP
013100
490810
495810
467910
444910
ENDCHAR
STARTCHAR ograve
ENCODING 242
SWIDTH 494 0
DWIDTH 5 0
BBX 5 6 0 0
BITMAP
014000
000000
189810
550450
550550
189810
ENDCHAR
STARTCHAR oacute
ENCODING 243
SWIDTH 494 0
DWIDTH 5 0
BBX 5 6 0 0
BITMAP
004100
000000
189810
550450
550550
189810
ENDCHAR
STARTCHAR ocircumflex
ENCODING 244
SWIDTH 494 0
DWIDTH 5 0
BBX 5 6 0 0
BITMAP
035100
000000
189810
550450
550550
189810
ENDCHAR
STARTCHAR otilde
ENCODING 245
SWIDTH 494 0
DWIDTH 5 0
BBX 5 5 0 0
BITMAP
012200
189810
550450
550550
189810
ENDCHAR
STARTCHAR odieresis
ENCODING 246
SWIDTH 494 0
DWIDTH 5 0
BBX 5 6 0 0
BITMAP
054500
000000
189810
550450
550550
189810
ENDCHAR
STARTCHAR divide
ENCODING 247
SWIDTH 418 0
DWIDTH 4 0
BBX 4 4 0 0
BITMAP
0230
2553
2443
0230
ENDCHAR
STARTCHAR oslash
ENCODING 248
SWIDTH 494 0
DWIDTH 5 0
BBX 5 4 0 0
BITMAP
188530
554650
563550
358810
ENDCHAR
STARTCHAR ugrave
ENCODING 249
SWIDTH 400 0
DWIDTH 4 0
BBX 4 6 0 0
BITMAP
0500
0000
4444
4444
4554
2882
ENDCHAR
STARTCHAR uacute
ENCODING 250
SWIDTH 400 0
DWIDTH 4 0
BBX 4 6 0 0
BITMAP
0050
0000
4444
4444
4554
2882
ENDCHAR
STARTCHAR ucircumflex
ENCODING 251
SWIDTH 400 0
DWIDTH 4 0
BBX 4 6 0 0
BITMAP
0640
0000
4444
4444
4554
2882
ENDCHAR
STARTCHAR udieresis
ENCODING 252
SWIDTH 400 0
DWIDTH 4 0
BBX 4 6 0 0
BITMAP
0770
0000
4444
4444
4554
2882
ENDCHAR
STARTCHAR yacute
ENCODING 253
SWIDTH 422 0
DWIDTH 4 0
BBX 4 6 0 0
BITMAP
0050
0000
5647
1792
0440
0540
ENDCHAR
STARTCHAR thorn
ENCODING 254
SWIDTH 412 0
DWIDTH 4 0
BBX 4 4 0 0
BITMAP
4742
4755
4755
4742
ENDCHAR
STARTCHAR ydieresis
ENCODING 255
SWIDTH 422 0
DWIDTH 4 0
BBX 4 6 0 0
BITMAP
0770
0000
5647
1792
0440
0540
ENDCHAR
STARTCHAR Edotaccent
ENCODING 278
SWIDTH 677 0
DWIDTH 7 0
BBX 7 10 0 0
BITMAP
00063000
00000000
47699940
47444420
47200000
47444400
47699800
47200000
47444420
47699940
ENDCHAR
STARTCHAR edotaccent
ENCODING 279
SWIDTH 363 0
DWIDTH 4 0
BBX 4 6 0 0
BITMAP
0460
0000
4A94
4741
4741
4A94
ENDCHAR
STARTCHAR dotlessi
ENCODING 305
SWIDTH 176 0
DWIDTH 2 0
BBX 2 4 0 0
BITMAP
44
44
44
44
ENDCHAR
STARTCHAR OE
ENCODING 338
SWIDTH 1221 0
DWIDTH 12 0
BBX 12 8 0 0
BITMAP
007995019998
085543014444
466000000000
590000014442
590000019993
465000000000
085543014444
006995019998
ENDCHAR
STARTCHAR oe
ENCODING 339
SWIDTH 637 0
DWIDTH 6 0
BBX 7 4 0 0
BITMAP
19918920
55004400
55004400
28918920
ENDCHAR
STARTCHAR Wcircumflex
ENCODING 372
SWIDTH 972 0
DWIDTH 10 0
BBX 10 10 0 0
BITMAP
0003740000
0017365000
5800860455
5642750572
3754572680
0865845850
0585665540
0557568520
0275457600
0086045500
ENDCHAR
STARTCHAR wcircumflex
ENCODING 373
SWIDTH 521 0
DWIDTH 5 0
BBX 5 6 0 0
BITMAP
025200
000000
638380
577950
489750
085930
ENDCHAR
STARTCHAR Ycircumflex
ENCODING 374
SWIDTH 769 0
DWIDTH 8 0
BBX 8 10 0 0
BITMAP
00374000
02736500
57400673
17714760
03766710
00576400
00153000
00094000
00094000
00094000
ENDCHAR
STARTCHAR ycircumflex
ENCODING 375
SWIDTH 422 0
DWIDTH 4 0
BBX 4 6 0 0
BITMAP
0540
0000
5647
1792
0440
0540
ENDCHAR
STARTCHAR Ydieresis
ENCODING 376
SWIDTH 769 0
DWIDTH 8 0
BBX 8 11 0 0
BITMAP
01523500
05055320
02523500
57400673
17714760
03766710
00576400
00153000
00094000
00094000
00094000
ENDCHAR
STARTCHAR circumflex
ENCODING 710
SWIDTH 298 0
DWIDTH 3 0
BBX 3 1 0 5
BITMAP
2520
ENDCHAR
STARTCHAR dotaccent
ENCODING 729
SWIDTH 212 0
DWIDTH 2 0
BBX 2 1 0 5
BITMAP
46
ENDCHAR
STARTCHAR ring
ENCODING 730
SWIDTH 212 0
DWIDTH 2 0
BBX 2 2 0 4
BITMAP
23
23
ENDCHAR
STARTCHAR tilde
ENCODING 732
SWIDTH 329 0
DWIDTH 3 0
BBX 3 1 0 4
BITMAP
1230
ENDCHAR
STARTCHAR gravecomb
ENCODING 768
SWIDTH 0 0
DWIDTH 0 0
BBX 2 1 0 5
BITMAP
32
ENDCHAR
STARTCHAR acutecomb
ENCODING 769
SWIDTH 0 0
DWIDTH 0 0
BBX 2 1 0 5
BITMAP
32
ENDCHAR
STARTCHAR uni0302
ENCODING 770
SWIDTH 0 0
DWIDTH 0 0
BBX 3 1 0 5
BITMAP
2520
ENDCHAR
STARTCHAR tildecomb
ENCODING 771
SWIDTH 0 0
DWIDTH 0 0
BBX 3 1 0 4
BITMAP
1230
ENDCHAR
STARTCHAR uni0307
ENCODING 775
SWIDTH 0 0
DWIDTH 0 0
BBX 2 1 0 5
BITMAP
46
ENDCHAR
STARTCHAR uni0308
ENCODING 776
SWIDTH 0 0
DWIDTH 0 0
BBX 3 1 0 5
BITMAP
6440
ENDCHAR
STARTCHAR uni030A
ENCODING 778
SWIDTH 0 0
DWIDTH 0 0
BBX 2 2 0 4
BITMAP
23
23
ENDCHAR
STARTCHAR uni0327
ENCODING 807
SWIDTH 0 0
DWIDTH 0 0
BBX 2 2 0 -2
BITMAP
27
25
ENDCHAR
STARTCHAR Wgrave
ENCODING 7808
SWIDTH 972 0
DWIDTH 10 0
BBX 10 10 0 0
BITMAP
0001720000
0000560000
5800860455
5642750572
3754572680
0865845850
0585665540
0557568520
0275457600
0086045500
ENDCHAR
STARTCHAR wgrave
ENCODING 7809
SWIDTH 521 0
DWIDTH 5 0
BBX 5 6 0 0
BITMAP
005000
000000
638380
577950
489750
085930
ENDCHAR
STARTCHAR Wacute
ENCODING 7810
SWIDTH 972 0
DWIDTH 10 0
BBX 10 10 0 0
BITMAP
0000560000
0001720000
5800860455
5642750572
3754572680
0865845850
0585665540
0557568520
0275457600
0086045500
ENDCHAR
STARTCHAR wacute
ENCODING 7811
SWIDTH 521 0
DWIDTH 5 0
BBX 5 6 0 0
BITMAP
005000
000000
638380
577950
489750
085930
ENDCHAR
STARTCHAR Wdieresis
ENCODING 7812
SWIDTH 972 0
DWIDTH 10 0
BBX 10 11 0 0
BITMAP
0015235000
0050553200
0015235000
5800860455
5642750572
3754572680
0865845850
0585665540
0557568520
0275457600
0086045500
ENDCHAR
STARTCHAR wdieresis
ENCODING 7813
SWIDTH 521 0
DWIDTH 5 0
BBX 5 6 0 0
BITMAP
044600
000000
638380
577950
489750
085930
ENDCHAR
STARTCHAR uni1E9E
ENCODING 7838
SWIDTH 784 0
DWIDTH 8 0
BBX 8 8 0 0
BITMAP
47699960
47444430
47206730
47237630
47246663
47200364
47244564
47289A60
ENDCHAR
STARTCHAR Ygrave
ENCODING 7922
SWIDTH 769 0
DWIDTH 8 0
BBX 8 10 0 0
BITMAP
00172000
00056000
57400673
17714760
03766710
00576400
00153000
00094000
00094000
00094000
ENDCHAR
STARTCHAR ygrave
ENCODING 7923
SWIDTH 422 0
DWIDTH 4 0
BBX 4 6 0 0
BITMAP
0240
0000
5647
1792
0440
0540
ENDCHAR
STARTCHAR endash
ENCODING 8211
SWIDTH 507 0
DWIDTH 5 0
BBX 5 2 0 1
BITMAP
244420
244420
ENDCHAR
STARTCHAR emdash
ENCODING 8212
SWIDTH 552 0
DWIDTH 6 0
BBX 5 2 0 1
BITMAP
244440
244440
ENDCHAR
STARTCHAR quoteleft
ENCODING 8216
SWIDTH 146 0
DWIDTH 1 0
BBX 2 2 0 2
BITMAP
51
21
ENDCHAR
STARTCHAR quoteright
ENCODING 8217
SWIDTH 146 0
DWIDTH 1 0
BBX 2 2 0 2
BITMAP
43
01
ENDCHAR
STARTCHAR quotesinglbase
ENCODING 8218
SWIDTH 146 0
DWIDTH 1 0
BBX 2 2 0 -2
BITMAP
43
01
ENDCHAR
STARTCHAR quotedblleft
ENCODING 8220
SWIDTH 297 0
DWIDTH 3 0
BBX 3 2 0 2
BITMAP
5530
2210
ENDCHAR
STARTCHAR quotedblright
ENCODING 8221
SWIDTH 297 0
DWIDTH 3 0
BBX 3 2 0 2
BITMAP
4550
0110
ENDCHAR
STARTCHAR quotedblbase
ENCODING 8222
SWIDTH 297 0
DWIDTH 3 0
BBX 3 2 0 -2
BITMAP
4540
0110
ENDCHAR
STARTCHAR bullet
ENCODING 8226
SWIDTH 302 0
DWIDTH 3 0
BBX 3 3 0 1
BITMAP
2520
5050
2520
ENDCHAR
STARTCHAR ellipsis
ENCODING 8230
SWIDTH 528 0
DWIDTH 5 0
BBX 5 1 0 0
BITMAP
446260
ENDCHAR
STARTCHAR guilsinglleft
ENCODING 8249
SWIDTH 178 0
DWIDTH 2 0
BBX 2 2 0 1
BITMAP
33
32
ENDCHAR
STARTCHAR guilsinglright
ENCODING 8250
SWIDTH 178 0
DWIDTH 2 0
BBX 2 2 0 1
BITMAP
41
32
ENDCHAR
STARTCHAR fraction
ENCODING 8260
SWIDTH 362 0
DWIDTH 4 0
BBX 4 4 0 0
BITMAP
0073
0550
1720
5500
ENDCHAR
STARTCHAR uni2074
ENCODING 8308
SWIDTH 204 0
DWIDTH 2 0
BBX 2 2 0 2
BITMAP
43
46
ENDCHAR
STARTCHAR Euro
ENCODING 8364
SWIDTH 462 0
DWIDTH 5 0
BBX 5 4 0 0
BITMAP
189710
441000
441000
189810
ENDCHAR
STARTCHAR trademark
ENCODING 8482
SWIDTH 461 0
DWIDTH 5 0
BBX 5 3 0 1
BITMAP
C97530
316530
101000
ENDCHAR
STARTCHAR minus
ENCODING 8722
SWIDTH 420 0
DWIDTH 4 0
BBX 4 1 0 1
BITMAP
8DDA
ENDCHAR
STARTCHAR uni2215
ENCODING 8725
SWIDTH 278 0
DWIDTH 3 0
BBX 3 4 0 0
BITMAP
0550
0730
3700
5500
ENDCHAR
STARTCHAR .notdef
ENCODING -1
SWIDTH 500 0
DWIDTH 5 0
BBX 5 12 0 -3
BITMAP
688860
800080
800080
800080
800080
800080
800080
800080
800080
800080
800080
688860
ENDCHAR
STARTCHAR NULL
ENCODING -1
SWIDTH 600 0
DWIDTH 6 0
BBX 1 1 0 0
BITMAP
00
ENDCHAR
STARTCHAR acutecomb.case
ENCODING -1
SWIDTH 0 0
DWIDTH 0 0
BBX 3 2 0 8
BITMAP
0550
3710
ENDCHAR
STARTCHAR ampersand.case
ENCODING -1
SWIDTH 797 0
DWIDTH 8 0
BBX 8 8 0 0
BITMAP
01798200
05656600
05838600
03685300
36676240
58268572
56447830
07894771
ENDCHAR
STARTCHAR asciicircum.case
ENCODING -1
SWIDTH 540 0
DWIDTH 5 0
BBX 5 4 0 4
BITMAP
006100
047500
073740
550370
ENDCHAR
STARTCHAR asciitilde.case
ENCODING -1
SWIDTH 640 0
DWIDTH 6 0
BBX 6 3 0 3
BITMAP
254102
444758
254685
ENDCHAR
STARTCHAR asterisk.case
ENCODING -1
SWIDTH 482 0
DWIDTH 5 0
BBX 5 4 0 4
BITMAP
118100
360710
053400
031200
ENDCHAR
STARTCHAR at.case
ENCODING -1
SWIDTH 915 0
DWIDTH 9 0
BBX 9 8 0 0
BITMAP
0059996100
0664565810
3744474550
5555054370
5545054350
3704550150
0670003500
005A984000
ENDCHAR
STARTCHAR backslash.case
ENCODING -1
SWIDTH 504 0
DWIDTH 5 0
BBX 5 9 0 -1
BITMAP
581000
464000
185000
058100
046500
018600
005810
004650
000860
ENDCHAR
STARTCHAR bar.case
ENCODING -1
SWIDTH 262 0
DWIDTH 3 0
BBX 3 9 0 -1
BITMAP
4720
4720
4720
4720
4720
4720
4720
4720
4720
ENDCHAR
STARTCHAR braceleft.case
ENCODING -1
SWIDTH 504 0
DWIDTH 5 0
BBX 5 10 0 -1
BITMAP
033420
045620
045620
045400
265400
485400
045400
045400
045750
033420
ENDCHAR
STARTCHAR braceright.case
ENCODING -1
SWIDTH 506 0
DWIDTH 5 0
BBX 5 10 0 -1
BITMAP
243300
475500
045500
045500
045750
045620
045500
265500
265500
243300
ENDCHAR
STARTCHAR bracketleft.case
ENCODING -1
SWIDTH 453 0
DWIDTH 5 0
BBX 4 10 0 -1
BITMAP
3544
4744
4744
4720
4720
4720
4720
4720
4769
3534
ENDCHAR
STARTCHAR bracketright.case
ENCODING -1
SWIDTH 453 0
DWIDTH 5 0
BBX 4 10 0 -1
BITMAP
2435
4958
0058
0058
0058
0058
0058
2458
2458
2436
ENDCHAR
STARTCHAR brokenbar.case
ENCODING -1
SWIDTH 262 0
DWIDTH 3 0
BBX 3 9 0 0
BITMAP
4720
4720
4720
4720
0000
4720
4720
4720
4720
ENDCHAR
STARTCHAR bullet.case
ENCODING -1
SWIDTH 503 0
DWIDTH 5 0
BBX 5 5 0 2
BITMAP
035400
355530
540450
355530
045400
ENDCHAR
STARTCHAR uni0327.case
ENCODING -1
SWIDTH 0 0
DWIDTH 0 0
BBX 3 3 0 -3
BITMAP
0200
1730
2430
ENDCHAR
STARTCHAR cent.case
ENCODING -1
SWIDTH 577 0
DWIDTH 6 0
BBX 6 11 0 -1
BITMAP
000100
003600
001200
015551
174450
473000
563000
165552
015640
003600
001200
ENDCHAR
STARTCHAR uni0302.case
ENCODING -1
SWIDTH 0 0
DWIDTH 0 0
BBX 5 2 0 8
BITMAP
047400
272740
ENDCHAR
STARTCHAR colon.case
ENCODING -1
SWIDTH 262 0
DWIDTH 3 0
BBX 3 5 0 0
BITMAP
4720
3410
0000
3410
4720
ENDCHAR
STARTCHAR comma.case
ENCODING -1
SWIDTH 338 0
DWIDTH 3 0
BBX 3 3 0 -1
BITMAP
0440
1850
4540
ENDCHAR
STARTCHAR copyright.case
ENCODING -1
SWIDTH 895 0
DWIDTH 9 0
BBX 9 8 0 0
BITMAP
006A9A5000
0850005800
4603450640
5545000550
5554000550
4605450640
0850006800
006A9A5000
ENDCHAR
STARTCHAR currency.case
ENCODING -1
SWIDTH 676 0
DWIDTH 7 0
BBX 7 6 0 0
BITMAP
06203400
45444620
05547300
06547300
45545630
15102400
ENDCHAR
STARTCHAR degree.case
ENCODING -1
SWIDTH 413 0
DWIDTH 4 0
BBX 4 4 0 4
BITMAP
2AA3
5546
5555
0551
ENDCHAR
STARTCHAR uni0308.case
ENCODING -1
SWIDTH 0 0
DWIDTH 0 0
BBX 6 3 0 8
BITMAP
251350
505542
251350
ENDCHAR
STARTCHAR divide.case
ENCODING -1
SWIDTH 618 0
DWIDTH 6 0
BBX 6 6 0 1
BITMAP
002400
002400
244443
488886
002400
002400
ENDCHAR
STARTCHAR uni2215.case
ENCODING -1
SWIDTH 483 0
DWIDTH 5 0
BBX 5 8 0 0
BITMAP
005540
006810
018500
056400
068100
185000
564000
680000
ENDCHAR
STARTCHAR dollar.case
ENCODING -1
SWIDTH 660 0
DWIDTH 7 0
BBX 7 9 0 -1
BITMAP
00461000
26666500
57565610
57660000
15857400
00266720
36565630
27666500
00461000
ENDCHAR
STARTCHAR eight.case
ENCODING -1
SWIDTH 561 0
DWIDTH 6 0
BBX 6 8 0 0
BITMAP
079940
565581
591554
478561
356871
590563
565482
079940
ENDCHAR
STARTCHAR ellipsis.case
ENCODING -1
SWIDTH 766 0
DWIDTH 8 0
BBX 8 2 0 0
BITMAP
34153342
47295473
ENDCHAR
STARTCHAR emdash.case
ENCODING -1
SWIDTH 790 0
DWIDTH 8 0
BBX 8 2 0 3
BITMAP
24444442
48888883
ENDCHAR
STARTCHAR endash.case
ENCODING -1
SWIDTH 721 0
DWIDTH 7 0
BBX 7 2 0 3
BITMAP
24444430
48888860
ENDCHAR
STARTCHAR equal.case
ENCODING -1
SWIDTH 618 0
DWIDTH 6 0
BBX 6 5 0 1
BITMAP
244443
244443
000000
244443
244443
ENDCHAR
STARTCHAR Euro.case
ENCODING -1
SWIDTH 767 0
DWIDTH 8 0
BBX 8 8 0 0
BITMAP
00399960
03854562
07720010
44444000
89999000
07720010
03854562
00499960
ENDCHAR
STARTCHAR exclam.case
ENCODING -1
SWIDTH 262 0
DWIDTH 3 0
BBX 3 8 0 0
BITMAP
4720
4720
4720
4720
4720
4620
3410
4720
ENDCHAR
STARTCHAR exclamdown.case
ENCODING -1
SWIDTH 262 0
DWIDTH 3 0
BBX 3 8 0 -2
BITMAP
4720
3410
4620
4720
4720
4720
4720
4720
ENDCHAR
STARTCHAR five.case
ENCODING -1
SWIDTH 558 0
DWIDTH 6 0
BBX 6 8 0 0
BITMAP
499991
244440
472000
474510
466971
240554
565482
079940
ENDCHAR
STARTCHAR four.case
ENCODING -1
SWIDTH 585 0
DWIDTH 6 0
BBX 6 8 0 0
BITMAP
005630
018600
056400
077000
454940
343952
343952
000940
ENDCHAR
STARTCHAR uni2074.case
ENCODING -1
SWIDTH 312 0
DWIDTH 3 0
BBX 3 4 0 4
BITMAP
1720
4400
3470
0150
ENDCHAR
STARTCHAR fraction.case
ENCODING -1
SWIDTH 655 0
DWIDTH 7 0
BBX 6 8 0 0
BITMAP
000046
000073
000560
001720
005500
027100
065000
370000
ENDCHAR
STARTCHAR gravecomb.case
ENCODING -1
SWIDTH 0 0
DWIDTH 0 0
BBX 3 2 0 8
BITMAP
3710
0550
ENDCHAR
STARTCHAR greater.case
ENCODING -1
SWIDTH 677 0
DWIDTH 7 0
BBX 7 8 0 0
BITMAP
20000000
46300000
37751000
02677500
02566310
37761000
47300000
20000000
ENDCHAR
STARTCHAR guillemotleft.case
ENCODING -1
SWIDTH 666 0
DWIDTH 7 0
BBX 7 6 0 1
BITMAP
00300310
06604710
36516510
47527610
26605710
00400410
ENDCHAR
STARTCHAR guillemotright.case
ENCODING -1
SWIDTH 666 0
DWIDTH 7 0
BBX 7 6 0 1
BITMAP
31012000
37217400
35515610
37617710
37417500
32013000
ENDCHAR
STARTCHAR guilsinglleft.case
ENCODING -1
SWIDTH 338 0
DWIDTH 3 0
BBX 3 6 0 1
BITMAP
0030
0660
3650
4750
2660
0040
ENDCHAR
STARTCHAR guilsinglright.case
ENCODING -1
SWIDTH 338 0
DWIDTH 3 0
BBX 3 6 0 1
BITMAP
3100
3720
3550
3760
3740
3200
ENDCHAR
STARTCHAR hyphen.case
ENCODING -1
SWIDTH 445 0
DWIDTH 4 0
BBX 4 2 0 3
BITMAP
2444
4888
ENDCHAR
STARTCHAR less.case
ENCODING -1
SWIDTH 677 0
DWIDTH 7 0
BBX 7 8 0 0
BITMAP
00000120
00004720
00276720
14655100
15775100
00366720
00004720
00000120
ENDCHAR
STARTCHAR logicalnot.case
ENCODING -1
SWIDTH 618 0
DWIDTH 6 0
BBX 6 4 0 1
BITMAP
244443
499996
000053
000095
ENDCHAR
STARTCHAR uni00B5.case
ENCODING -1
SWIDTH 792 0
DWIDTH 8 0
BBX 8 10 0 -2
BITMAP
47201840
47201840
47201840
47201840
47201840
47203650
47544863
47799466
47200000
47200000
ENDCHAR
STARTCHAR minus.case
ENCODING -1
SWIDTH 618 0
DWIDTH 6 0
BBX 6 2 0 3
BITMAP
244443
488886
ENDCHAR
STARTCHAR multiply.case
ENCODING -1
SWIDTH 580 0
DWIDTH 6 0
BBX 5 5 0 1
BITMAP
161410
185660
046620
366670
051140
ENDCHAR
STARTCHAR nine.case
ENCODING -1
SWIDTH 558 0
DWIDTH 6 0
BBX 6 8 0 0
BITMAP
079940
565582
590554
479754
044654
250554
565582
079940
ENDCHAR
STARTCHAR numbersign.case
ENCODING -1
SWIDTH 776 0
DWIDTH 8 0
BBX 8 8 0 0
BITMAP
00850950
03855761
05654441
06555551
25555830
24445830
04407600
08509500
ENDCHAR
STARTCHAR one.case
ENCODING -1
SWIDTH 378 0
DWIDTH 4 0
BBX 4 8 0 0
BITMAP
8754
4654
0454
0454
0454
0454
0454
0454
ENDCHAR
STARTCHAR onehalf.case
ENCODING -1
SWIDTH 735 0
DWIDTH 7 0
BBX 7 8 0 0
BITMAP
47401730
05405500
05417200
01155000
00274970
00640650
03703540
07402430
ENDCHAR
STARTCHAR onequarter.case
ENCODING -1
SWIDTH 722 0
DWIDTH 7 0
BBX 7 8 0 0
BITMAP
47401730
05405500
05417200
01155000
00272810
00644400
03704550
07400340
ENDCHAR
STARTCHAR uni00B9.case
ENCODING -1
SWIDTH 306 0
DWIDTH 3 0
BBX 3 4 0 4
BITMAP
4740
0540
0540
0110
ENDCHAR
STARTCHAR ordfeminine.case
ENCODING -1
SWIDTH 456 0
DWIDTH 5 0
BBX 4 4 0 4
BITMAP
0480
0684
2775
2204
ENDCHAR
STARTCHAR ordmasculine.case
ENCODING -1
SWIDTH 489 0
DWIDTH 5 0
BBX 5 4 0 4
BITMAP
18A800
540540
445530
044300
ENDCHAR
STARTCHAR paragraph.case
ENCODING -1
SWIDTH 893 0
DWIDTH 9 0
BBX 9 8 0 0
BITMAP
1899999940
5654444420
5900364440
4454565440
0454565440
0000365440
0000365440
0000365440
ENDCHAR
STARTCHAR parenleft.case
ENCODING -1
SWIDTH 290 0
DWIDTH 3 0
BBX 3 9 0 -1
BITMAP
0780
2750
5630
5900
5900
5900
5630
2750
0780
ENDCHAR
STARTCHAR parenright.case
ENCODING -1
SWIDTH 290 0
DWIDTH 3 0
BBX 4 9 -1 0
BITMAP
1860
0581
0454
0184
0194
0184
0464
0581
1860
ENDCHAR
STARTCHAR percent.case
ENCODING -1
SWIDTH 827 0
DWIDTH 8 0
BBX 8 8 0 0
BITMAP
2AA30376
55460772
55555750
05537700
00575552
02764556
07725518
575019A4
ENDCHAR
STARTCHAR period.case
ENCODING -1
SWIDTH 262 0
DWIDTH 3 0
BBX 3 2 0 0
BITMAP
3410
4720
ENDCHAR
STARTCHAR periodcentered.case
ENCODING -1
SWIDTH 262 0
DWIDTH 3 0
BBX 3 2 0 3
BITMAP
3410
4720
ENDCHAR
STARTCHAR plus.case
ENCODING -1
SWIDTH 616 0
DWIDTH 6 0
BBX 6 6 0 1
BITMAP
001200
005800
245833
485866
005800
004600
ENDCHAR
STARTCHAR plusminus.case
ENCODING -1
SWIDTH 618 0
DWIDTH 6 0
BBX 6 8 0 0
BITMAP
001200
005800
245833
485866
005800
004600
244443
488886
ENDCHAR
STARTCHAR question.case
ENCODING -1
SWIDTH 598 0
DWIDTH 6 0
BBX 6 8 0 0
BITMAP
05A950
465564
232365
002763
006740
006600
004400
007700
ENDCHAR
STARTCHAR questiondown.case
ENCODING -1
SWIDTH 598 0
DWIDTH 6 0
BBX 6 8 0 -2
BITMAP
007700
004400
006600
047600
367200
563232
465563
069950
ENDCHAR
STARTCHAR quotedbl.case
ENCODING -1
SWIDTH 464 0
DWIDTH 5 0
BBX 5 3 0 5
BITMAP
684540
684540
342320
ENDCHAR
STARTCHAR quotedblbase.case
ENCODING -1
SWIDTH 464 0
DWIDTH 5 0
BBX 5 3 0 -1
BITMAP
684550
482550
140230
ENDCHAR
STARTCHAR quotedblleft.case
ENCODING -1
SWIDTH 464 0
DWIDTH 5 0
BBX 5 3 0 5
BITMAP
322300
664630
684640
ENDCHAR
STARTCHAR quotedblright.case
ENCODING -1
SWIDTH 464 0
DWIDTH 5 0
BBX 5 3 0 5
BITMAP
684550
482550
140230
ENDCHAR
STARTCHAR quoteleft.case
ENCODING -1
SWIDTH 212 0
DWIDTH 2 0
BBX 2 3 0 5
BITMAP
32
66
68
ENDCHAR
STARTCHAR quoteright.case
ENCODING -1
SWIDTH 212 0
DWIDTH 2 0
BBX 2 3 0 5
BITMAP
68
48
14
ENDCHAR
STARTCHAR quotesinglbase.case
ENCODING -1
SWIDTH 212 0
DWIDTH 2 0
BBX 2 3 0 -1
BITMAP
68
48
14
ENDCHAR
STARTCHAR quotesingle.case
ENCODING -1
SWIDTH 212 0
DWIDTH 2 0
BBX 2 3 0 5
BITMAP
68
68
34
ENDCHAR
STARTCHAR registered.case
ENCODING -1
SWIDTH 895 0
DWIDTH 9 0
BBX 9 8 0 0
BITMAP
006A9A5000
0850005800
4616451640
5518463550
5518870550
4618181640
0850006800
006A9A5000
ENDCHAR
STARTCHAR uni030A.case
ENCODING -1
SWIDTH 0 0
DWIDTH 0 0
BBX 3 3 0 8
BITMAP
2520
5050
2520
ENDCHAR
STARTCHAR section.case
ENCODING -1
SWIDTH 645 0
DWIDTH 6 0
BBX 6 11 0 -2
BITMAP
024441
179976
275520
067464
266576
555276
278752
025875
245586
355445
035440
ENDCHAR
STARTCHAR semicolon.case
ENCODING -1
SWIDTH 338 0
DWIDTH 3 0
BBX 3 6 0 -1
BITMAP
0680
0350
0000
0440
1850
4540
ENDCHAR
STARTCHAR seven.case
ENCODING -1
SWIDTH 505 0
DWIDTH 5 0
BBX 5 8 0 0
BITMAP
699960
344430
004650
005820
007700
028500
056400
058000
ENDCHAR
STARTCHAR six.case
ENCODING -1
SWIDTH 558 0
DWIDTH 6 0
BBX 6 8 0 0
BITMAP
079930
565581
590332
583510
586971
590554
565482
079940
ENDCHAR
STARTCHAR slash.case
ENCODING -1
SWIDTH 504 0
DWIDTH 5 0
BBX 5 9 0 -1
BITMAP
000860
004650
005810
018600
046400
058100
185000
564000
681000
ENDCHAR
STARTCHAR uni00AD.case
ENCODING -1
SWIDTH 445 0
DWIDTH 4 0
BBX 4 2 0 3
BITMAP
2444
4888
ENDCHAR
STARTCHAR sterling.case
ENCODING -1
SWIDTH 618 0
DWIDTH 6 0
BBX 6 8 0 0
BITMAP
069971
465566
573021
444420
799940
354000
444444
899998
ENDCHAR
STARTCHAR three.case
ENCODING -1
SWIDTH 558 0
DWIDTH 6 0
BBX 6 8 0 0
BITMAP
079930
565581
250564
001551
002971
240554
565482
079940
ENDCHAR
STARTCHAR threequarters.case
ENCODING -1
SWIDTH 722 0
DWIDTH 7 0
BBX 7 8 0 0
BITMAP
39601730
02505500
23617200
25355000
00272810
00644400
03704550
07400340
ENDCHAR
STARTCHAR uni00B3.case
ENCODING -1
SWIDTH 332 0
DWIDTH 3 0
BBX 3 4 0 4
BITMAP
3960
0250
2360
2530
ENDCHAR
STARTCHAR tildecomb.case
ENCODING -1
SWIDTH 0 0
DWIDTH 0 0
BBX 5 2 0 8
BITMAP
252120
303500
ENDCHAR
STARTCHAR trademark.case
ENCODING -1
SWIDTH 850 0
DWIDTH 9 0
BBX 9 4 0 4
BITMAP
8BA5833910
0632878910
0632743810
0632700810
ENDCHAR
STARTCHAR two.case
ENCODING -1
SWIDTH 558 0
DWIDTH 6 0
BBX 6 8 0 0
BITMAP
079940
565582
240564
002871
018730
177400
244440
499990
ENDCHAR
STARTCHAR uni00B2.case
ENCODING -1
SWIDTH 339 0
DWIDTH 3 0
BBX 3 4 0 4
BITMAP
3970
0650
3540
2440
ENDCHAR
STARTCHAR underscore.case
ENCODING -1
SWIDTH 667 0
DWIDTH 7 0
BBX 7 2 0 0
BITMAP
24444410
49999920
ENDCHAR
STARTCHAR yen.case
ENCODING -1
SWIDTH 769 0
DWIDTH 8 0
BBX 8 8 0 0
BITMAP
57400674
17714760
04656720
00675500
00344000
02394410
02394410
00094000
ENDCHAR
STARTCHAR zero.case
ENCODING -1
SWIDTH 558 0
DWIDTH 6 0
BBX 6 8 0 0
BITMAP
079940
565482
590554
580454
580454
590554
565582
079940
ENDCHAR
ENDFONT
